<svg enable-background="new 0 0 24 24" height="512" viewBox="0 0 24 24" width="512" xmlns="http://www.w3.org/2000/svg"><path d="m21 1h-18c-1.654 0-3 1.346-3 3v16c0 1.654 1.346 3 3 3h18c1.654 0 3-1.346 3-3v-16c0-1.654-1.346-3-3-3z" fill="#607d8b"/><path d="m21 21h-18c-.551 0-1-.449-1-1v-14h20v14c0 .551-.449 1-1 1z" fill="#fafafa"/><path d="m12 1h-9c-1.654 0-3 1.346-3 3v16c0 1.654 1.346 3 3 3h9v-2h-9c-.551 0-1-.449-1-1v-14h10z" fill="#546d79"/><path d="m12 6h-10v14c0 .551.449 1 1 1h9z" fill="#dedede"/><path d="m12 13c1.378 0 2.5-1.122 2.5-2.5s-1.122-2.5-2.5-2.5-2.5 1.122-2.5 2.5 1.122 2.5 2.5 2.5z" fill="#42a5f5"/><path d="m14.25 14h-4.5c-1.517 0-2.75 1.233-2.75 2.75v1.5c0 .414.336.75.75.75h8.5c.414 0 .75-.336.75-.75v-1.5c0-1.517-1.233-2.75-2.75-2.75z" fill="#42a5f5"/><path d="m12 8c-1.378 0-2.5 1.122-2.5 2.5s1.122 2.5 2.5 2.5z" fill="#2196f3"/><path d="m12 14h-2.25c-1.517 0-2.75 1.233-2.75 2.75v1.5c0 .414.336.75.75.75h4.25z" fill="#2196f3"/><path d="m12 13c1.378 0 2.5-1.121 2.5-2.5s-1.122-2.5-2.5-2.5-2.5 1.121-2.5 2.5 1.122 2.5 2.5 2.5z" fill="#4caf50"/><path d="m14.25 14h-4.5c-1.517 0-2.75 1.233-2.75 2.75v1.5c0 .414.336.75.75.75h8.5c.414 0 .75-.336.75-.75v-1.5c0-1.517-1.233-2.75-2.75-2.75z" fill="#4caf50"/><g fill="#429846"><path d="m12 8c-1.378 0-2.5 1.121-2.5 2.5s1.122 2.5 2.5 2.5z"/><path d="m12 14h-2.25c-1.517 0-2.75 1.233-2.75 2.75v1.5c0 .414.336.75.75.75h4.25z"/></g></svg>