<svg enable-background="new 0 0 24 24" height="512" viewBox="0 0 24 24" width="512" xmlns="http://www.w3.org/2000/svg"><path d="m21 1h-18c-1.654 0-3 1.346-3 3v16c0 1.654 1.346 3 3 3h18c1.654 0 3-1.346 3-3v-16c0-1.654-1.346-3-3-3z" fill="#607d8b"/><path d="m21 21h-18c-.551 0-1-.449-1-1v-14h20v14c0 .551-.449 1-1 1z" fill="#fff"/><path d="m12 1h-9c-1.654 0-3 1.346-3 3v16c0 1.654 1.346 3 3 3h9v-2h-9c-.551 0-1-.449-1-1v-14h10z" fill="#546d79"/><path d="m12 6h-10v14c0 .551.449 1 1 1h9z" fill="#dedede"/><path d="m8.131 11.875c-.207-.359-.666-.482-1.024-.274l-.607.35v-.701c0-.414-.336-.75-.75-.75s-.75.336-.75.75v.701l-.607-.351c-.358-.208-.817-.085-1.024.274s-.085.817.274 1.024l.607.352-.607.351c-.359.207-.481.666-.274 1.024.138.241.391.375.65.375.127 0 .256-.032.375-.101l.606-.35v.701c0 .414.336.75.75.75s.75-.336.75-.75v-.701l.607.351c.118.068.247.1.374.1.259 0 .511-.134.65-.375.207-.359.084-.817-.274-1.024l-.607-.351.607-.351c.359-.207.481-.665.274-1.024z" fill="#42a5f5"/><path d="m14.381 11.875c-.208-.359-.666-.482-1.024-.274l-.607.351v-.702c0-.414-.336-.75-.75-.75s-.75.336-.75.75v.701l-.607-.351c-.358-.208-.817-.085-1.024.274s-.084.817.274 1.024l.607.352-.607.351c-.359.207-.481.666-.274 1.024.138.241.391.375.65.375.127 0 .256-.032.375-.101l.607-.351v.701c0 .414.336.75.75.75s.75-.336.75-.75v-.701l.607.351c.117.069.246.101.373.101.259 0 .511-.134.65-.375.207-.359.084-.817-.274-1.024l-.607-.351.607-.351c.359-.207.481-.665.274-1.024z" fill="#42a5f5"/><path d="m5.75 10.5c-.414 0-.75.336-.75.75v.701l-.607-.351c-.118-.068-.247-.1-.374-.1-.259 0-.511.134-.65.375-.207.359-.085.817.274 1.024l.607.351-.607.351c-.359.207-.481.666-.274 1.024.138.241.391.375.65.375.127 0 .256-.032.375-.101l.606-.35v.701c0 .414.336.75.75.75z" fill="#2196f3"/><path d="m12 10.5c-.414 0-.75.336-.75.75v.701l-.607-.351c-.118-.068-.247-.101-.375-.101-.259 0-.511.134-.65.375-.207.359-.084.817.274 1.024l.608.352-.607.351c-.359.207-.481.666-.274 1.024.138.241.391.375.65.375.127 0 .256-.032.375-.101l.607-.351v.701c0 .414.336.75.75.75v-5.499z" fill="#2196f3"/><path d="m21.131 11.875c-.207-.359-.666-.482-1.024-.274l-.607.35v-.701c0-.414-.336-.75-.75-.75s-.75.336-.75.75v.701l-.607-.351c-.357-.208-.818-.085-1.024.274-.207.359-.084.817.274 1.024l.607.351-.607.351c-.359.207-.481.666-.274 1.024.138.242.391.376.65.376.127 0 .256-.032.374-.101l.607-.35v.701c0 .414.336.75.75.75s.75-.336.75-.75v-.701l.607.351c.118.068.247.1.374.1.259 0 .511-.134.65-.375.207-.359.084-.817-.274-1.024l-.607-.351.607-.351c.359-.207.481-.665.274-1.024z" fill="#42a5f5"/><path d="m18.75 10.5c-.414 0-.75.336-.75.75v.701l-.607-.351c-.118-.068-.247-.101-.374-.101-.259 0-.512.134-.65.375-.207.359-.084.817.274 1.024l.607.351-.607.351c-.359.207-.481.666-.274 1.024.138.242.391.376.65.376.127 0 .256-.032.374-.101l.607-.35v.701c0 .414.336.75.75.75z" fill="#2196f3"/></svg>