<svg enable-background="new 0 0 24 24" height="512" viewBox="0 0 24 24" width="512" xmlns="http://www.w3.org/2000/svg"><path d="m21.25 3h-18.5c-1.517 0-2.75 1.233-2.75 2.75v12.5c0 1.517 1.233 2.75 2.75 2.75h18.5c1.517 0 2.75-1.233 2.75-2.75v-12.5c0-1.517-1.233-2.75-2.75-2.75z" fill="#eceff1"/><path d="m12 3h-9.25c-1.517 0-2.75 1.233-2.75 2.75v12.5c0 1.517 1.233 2.75 2.75 2.75h9.25z" fill="#cfd8dc"/><path d="m7.5 7c1.378 0 2.5 1.122 2.5 2.5s-1.122 2.5-2.5 2.5-2.5-1.122-2.5-2.5 1.122-2.5 2.5-2.5z" fill="#42a5f5"/><path d="m12 16.25c0 .414-.336.75-.75.75h-7.5c-.414 0-.75-.336-.75-.75v-.5c0-1.517 1.233-2.75 2.75-2.75h3.5c1.517 0 2.75 1.233 2.75 2.75z" fill="#42a5f5"/><path d="m7.5 7c-1.378 0-2.5 1.122-2.5 2.5s1.122 2.5 2.5 2.5z" fill="#2196f3"/><path d="m7.5 13h-1.75c-1.517 0-2.75 1.233-2.75 2.75v.5c0 .414.336.75.75.75h3.75z" fill="#2196f3"/><g fill="#607d8b"><path d="m20.25 17h-5.5c-.414 0-.75-.336-.75-.75s.336-.75.75-.75h5.5c.414 0 .75.336.75.75s-.336.75-.75.75z"/><path d="m20.25 13h-5.5c-.414 0-.75-.336-.75-.75s.336-.75.75-.75h5.5c.414 0 .75.336.75.75s-.336.75-.75.75z"/><path d="m20.25 9h-5.5c-.414 0-.75-.336-.75-.75s.336-.75.75-.75h5.5c.414 0 .75.336.75.75s-.336.75-.75.75z"/></g><g fill="#546d79"><path d="m17.5 15.5h-2.75c-.414 0-.75.336-.75.75s.336.75.75.75h2.75z"/><path d="m17.5 11.5h-2.75c-.414 0-.75.336-.75.75s.336.75.75.75h2.75z"/><path d="m17.5 7.5h-2.75c-.414 0-.75.336-.75.75s.336.75.75.75h2.75z"/></g></svg>